<?xml version="1.0" encoding="UTF-8" standalone="no"?>
<svg xmlns="http://www.w3.org/2000/svg" xmlns:xlink="http://www.w3.org/1999/xlink" width="300px" height="900px" viewBox="0 0 300 900">
<defs>
  <symbol id="grid-square">
    <rect width="100px" height="100px" fill="#ccccc0"/>
  </symbol>
  <symbol id="grid-column">
    <use xlink:href="#grid-square" opacity=".50" x="0" y="0"/>
    <use xlink:href="#grid-square" opacity=".25" x="0" y="100"/>
    <use xlink:href="#grid-square" opacity=".50" x="0" y="200"/>
    <use xlink:href="#grid-square" opacity=".25" x="0" y="300"/>
    <use xlink:href="#grid-square" opacity=".50" x="0" y="400"/>
    <use xlink:href="#grid-square" opacity=".25" x="0" y="500"/>
    <use xlink:href="#grid-square" opacity=".50" x="0" y="600"/>
    <use xlink:href="#grid-square" opacity=".25" x="0" y="700"/>
    <use xlink:href="#grid-square" opacity=".50" x="0" y="800"/>
  </symbol>
  <symbol id="checkmark">
    <path d="M 99.999748,12.501065 C 79.166103,33.33325 58.332454,54.165435 37.498809,74.99762 24.999204,62.498015 12.499604,49.998415 0,37.49881 4.16702,33.33179 8.334044,29.164765 12.501064,24.997745 20.833644,33.33179 29.166229,41.66583 37.498809,49.999875 54.165434,33.33325 70.832059,16.666625 87.498684,0 c 4.16702,4.167021 8.334044,8.334045 12.501064,12.501065 z"/>
  </symbol>
  <symbol id="checkbox">
    <path d="m 95.004391,4.995607 0,85.053767 -90.008785,0 0,-85.053767 90.008785,0 M 100,0 -1.4e-6,0 l 0,95.044981 L 100,95.044981 100,0 l 0,0 z" />
  </symbol>
  <symbol id="checkbox-checked">
    <use xlink:href="#checkbox" />
    <path d="M 21.794728,47.524695 43.540172,69.27014 78.205262,34.609428 69.372898,25.774869 43.540172,51.6076 30.624904,38.692328 Z" />
  </symbol>
  <symbol id="editorial-refine">
    <path d="m 0,0 0,75.55556 100,0 L 100,0 0,0 Z m 10.74074,8.88889 34.07407,0 0,6.2963 -34.07407,0 0,-6.2963 z m 0,25.55556 34.07407,0 0,6.2963 -34.07407,0 0,-6.2963 z m 34.07407,32.22222 -34.07407,0 0,-6.2963 34.07407,0 0,6.2963 z m 0,-12.96296 -34.07407,0 0,-6.2963 34.07407,0 0,6.2963 z m 0,-25.55556 -34.07407,0 0,-6.29629 34.07407,0 0,6.29629 z m 44.07408,38.51852 -33.7037,0 0,-6.2963 33.7037,0 0,6.2963 z m 0,-12.96296 -33.7037,0 0,-6.2963 33.7037,0 0,6.2963 z m 0.37037,-12.96296 -33.7037,0 0,-31.85186 33.7037,0 0,31.85186 z"/>
  </symbol>
  <symbol id="editorial">
    <path d="m 100.99101,80.524027 -99.9999964,0 0,-80.524027 99.9999964,0 0,80.524027 z m -95.6577006,-4.342293 91.3154046,0 0,-71.839439 -91.3154046,0 0,71.839439 z" style="fill:#ffffff"/>
	  <rect x="5.3332582" y="4.3423429" width="91.315414" height="71.839432" style="opacity:0.4;fill:#0c0d0d"/>
	  <path d="m 10.918547,9.979626 0,60.60973 80.144932,0 0,-60.60973 -80.144932,0 z m 8.689096,7.156652 27.18464,0 0,5.050811 -27.18464,0 0,-5.050811 z m -0.0148,20.592904 27.18464,0 0,5.050813 -27.18464,0 0,-5.050813 z m 27.19944,25.7325 -27.184642,0 0,-5.050814 27.184642,0 0,5.050814 z m 0,-10.317415 -27.184642,0 0,-5.05081 27.184642,0 0,5.05081 z m 0.0099,-20.685389 -27.184641,0 0,-5.050812 27.184641,0 0,5.050812 z m 35.557291,31.002804 -27.130234,0 0,-5.050814 27.130234,0 0,5.050814 z m 0,-10.317415 -27.130234,0 0,-5.05081 27.130234,0 0,5.05081 z m 0.02968,-10.425931 -27.130686,0 0,-25.61119 27.130686,0 0,25.61119 z"  style="fill:#ffffff"/>
  </symbol>
  <symbol id="people">
    <path d="m 31.6554,38.840265 c 10.710551,0 19.4211,-8.711106 19.4211,-19.418334 C 51.0765,8.714426 42.365951,0 31.6554,0 20.948448,0 12.236236,8.714426 12.236236,19.421931 c 0,10.707228 8.712212,19.418334 19.419164,19.418334 z"/>
    <path d="m 74.83351,54.085299 -1.950467,0 C 68.712326,54.203713 64.425394,54.782034 60.545213,55.91236 54.661442,49.464666 43.31365,46.616862 32.571834,46.311659 l -2.354727,0 C 14.077682,46.770152 0,50.783517 0,66.784736 l 0.05087,16.243779 c 0.9189247,7.431086 5.680398,8.535952 15.23821,8.576907 l 71.913523,0 c 7.917527,-0.034 11.859686,-0.949087 12.621726,-7.104857 l 0.17567,-12.58077 c 0,-13.938358 -11.794651,-17.454582 -25.166511,-17.834496 z"/>
    <path d="m 74.07424,47.474726 c 8.872421,0 16.087959,-7.216091 16.087959,-16.085747 0,-8.869656 -7.215538,-16.088512 -16.087959,-16.088512 -8.869103,0 -16.086023,7.218856 -16.086023,16.088512 0,8.869656 7.21692,16.085747 16.086023,16.085747 z"/>
  </symbol>
  <symbol id="no-people">
	  <path d="M 49.997747,3.5e-6 C 22.427551,3.5e-6 1.5e-6,22.429804 1.5e-6,50.000003 c 0,27.570199 22.4275465,49.999993 49.9977445,49.999993 27.5702,0 50.002253,-22.429803 50.002253,-49.999993 C 99.999999,22.429808 77.56795,3.5e-6 49.997747,3.5e-6 Z M 90.769372,50.000003 c 0,9.580217 -3.343737,18.382104 -8.896255,25.349019 L 24.651826,18.125763 c 6.966353,-5.551955 15.767113,-8.8951285 25.34592,-8.8951285 22.481634,0 40.771626,18.2899875 40.771626,40.7693685 z m -81.5387385,0 c 0,-9.579652 3.3434555,-18.38126 8.8951315,-25.347896 L 75.346489,81.875086 C 68.379569,87.426479 59.57796,90.76937 49.997742,90.76937 27.520623,90.769366 9.2306335,72.47938 9.2306335,50.000003 Z" />
  </symbol>
  <symbol id="composition-vertical">
    <path d="m 96.141482,3.8461538 0,92.3076922 -92.2829641,0 0,-92.3076922 92.2829641,0 M 100,0 0,0 l 0,100 100,0 0,-100 0,0 z" id="path3" />
    <rect x="35.757542" y="15.353665" width="30.517578" height="69.292641" id="rect5" />
  </symbol>
  <symbol id="composition-horizontal">
    <path d="m 96.141482,3.8461538 0,92.3076922 -92.2829641,0 0,-92.3076922 92.2829641,0 M 100,0 0,0 l 0,100 100,0 0,-100 0,0 z" id="path3" />
    <rect x="15.353724" y="34.741211" width="69.292549" height="30.517578" id="rect5" />
  </symbol>
  <symbol id="composition-square">
    <path d="m 96.141482,3.8461538 0,92.3076922 -92.2829641,0 0,-92.3076922 92.2829641,0 M 100,0 0,0 l 0,100 100,0 0,-100 0,0 z" id="path3" />
    <rect x="16.594952" y="15.353624" width="68.810097" height="69.292641" />
  </symbol>
  <symbol id="radio">
    <path d="M 50.000006,100.00001 C 22.289162,100.00001 0,77.710847 0,49.999997 0,22.289157 22.289162,-6.5e-6 50.000006,-6.5e-6 77.710852,-6.5e-6 100,22.289157 100,49.999997 100,77.108437 77.710852,100.00001 50.000006,100.00001 Z m 0,-93.9759215 c -24.096387,0 -43.975909,19.8795185 -43.975909,43.9759085 0,24.096389 19.879522,43.97591 43.975909,43.97591 24.096389,0 43.975909,-19.879521 43.975909,-43.97591 0,-24.09639 -19.87952,-43.9759085 -43.975909,-43.9759085 z" />
  </symbol>
  <symbol id="radio-checked">
    <use xlink:href="#radio" />
    <circle cx="50" cy="50" r="26.506027" />
  </symbol>
  <symbol id="caron">
    <path d="M 50.087395,59.554324 2.5e-6,9.292165 9.4815075,0 50.087395,40.605883 90.693268,0 99.999997,9.292165 50.087395,59.554324 Z" />
  </symbol>
  <symbol id="x">
    <path d="M 99.999999,92.6489 92.75981,100 50.000055,57.231537 7.2402405,99.940219 0,92.708681 42.759814,50.119501 2.121e-5,7.351055 7.2402193,0 50.119708,42.768403 92.819631,0.059755 99.940178,7.291301 57.359906,49.999991 Z"/>
  </symbol>
  <symbol id="mosaic-icon">
  	<rect x="74.230141" y="3.8982493e-05" width="25.769848" height="25.538696"/>
  	<rect x="-1.1295923e-05" y="37.230591" width="25.769848" height="25.538696"/>
  	<rect x="74.230141" y="74.461304" width="25.769848" height="25.538696"/>
  	<rect height="25.538696" width="62.320999" y="37.230652" x="37.679001"/>
  	<rect x="0" y="0" width="62.320999" height="25.538696" id="rect3376"/>
  	<rect height="25.538696" width="62.320999" y="74.461304" x="0"/>
  </symbol>
  <symbol id="grid-icon">
    <rect x="-1.2814999e-06" y="0" width="25.76992" height="25.538733" />
  	<rect x="37.115036" y="0" width="25.76992" height="25.538733" />
  	<rect x="74.23008" y="0" width="25.76992" height="25.538733" />
  	<rect x="-1.2814999e-06" y="37.230633" width="25.76992" height="25.538733" />
  	<rect x="37.115036" y="37.230633" width="25.76992" height="25.538733" />
  	<rect x="74.23008" y="37.230633" width="25.76992" height="25.538733" />
  	<rect x="-1.2814999e-06" y="74.461266" width="25.76992" height="25.538733" />
  	<rect x="37.115036" y="74.461266" width="25.76992" height="25.538733" />
  	<rect x="74.23008" y="74.461266" width="25.76992" height="25.538733" />
  </symbol>
  <symbol id="refine-toggle">
  	<path d="m 92.60591,14.07047 -42.70932,0 C 48.27044,8.12614 42.87705,3.721 36.42392,3.721 c -6.45291,0 -11.8463,4.40514 -13.47245,10.34947 l -15.55655,0 c -2.02889,0 -3.67392,1.64323 -3.67392,3.67392 0,2.03072 1.64503,3.67392 3.67392,3.67392 l 15.55699,0 c 1.62663,5.94367 7.01954,10.34793 13.47201,10.34793 6.45269,0 11.8456,-4.40426 13.47223,-10.34793 l 42.70976,0 c 2.02892,0 3.67392,-1.6432 3.67392,-3.67392 0,-2.03069 -1.645,-3.67392 -3.67392,-3.67392 z M 36.42392,24.4184 c -3.68627,0 -6.67467,-2.98841 -6.67467,-6.67467 0,-3.68649 2.9884,-6.67489 6.67467,-6.67489 3.68648,0 6.67489,2.9884 6.67489,6.67489 0,3.68626 -2.98841,6.67467 -6.67489,6.67467 z"/>
  	<path d="m 3.721,59.53523 c 0,2.03072 1.64503,3.67392 3.67392,3.67392 l 42.70976,0 c 1.62663,5.94367 7.01957,10.34793 13.47226,10.34793 6.45243,0 11.84538,-4.40426 13.47201,-10.34793 l 15.55696,0 c 2.02892,0 3.67392,-1.6432 3.67392,-3.67392 0,-2.03069 -1.645,-3.67392 -3.67392,-3.67392 l -15.55652,0 C 75.4232,49.91698 70.02985,45.51184 63.57694,45.51184 c -6.45313,0 -11.84652,4.40514 -13.4727,10.34947 l -42.70932,0 c -2.02889,0 -3.67392,1.64323 -3.67392,3.67392 z m 53.18102,-6.6e-4 c 0,-3.68649 2.98844,-6.67489 6.67492,-6.67489 3.68623,0 6.67467,2.9884 6.67467,6.67489 0,3.68626 -2.98844,6.67467 -6.67467,6.67467 -3.68648,0 -6.67492,-2.98841 -6.67492,-6.67467 z"/>
  </symbol>
  <symbol id="refine-toggle-alt">
    <path d="m 3.721,17.74439 c 0,2.03072 1.64503,3.67392 3.67392,3.67392 l 42.70976,0 c 1.62663,5.94367 7.01957,10.34793 13.47226,10.34793 6.45243,0 11.84538,-4.40426 13.47201,-10.34793 l 15.55696,0 c 2.02892,0 3.67392,-1.6432 3.67392,-3.67392 0,-2.03069 -1.645,-3.67392 -3.67392,-3.67392 l -15.55652,0 C 75.4232,8.12614 70.02985,3.721 63.57694,3.721 c -6.45313,0 -11.84652,4.40514 -13.4727,10.34947 l -42.70932,0 c -2.02889,0 -3.67392,1.64323 -3.67392,3.67392 z m 53.18102,-6.6e-4 c 0,-3.68649 2.98844,-6.67489 6.67492,-6.67489 3.68623,0 6.67467,2.9884 6.67467,6.67489 0,3.68626 -2.98844,6.67467 -6.67467,6.67467 -3.68648,0 -6.67492,-2.98841 -6.67492,-6.67467 z"/>
    <path d="m 92.60591,55.86131 -42.70932,0 C 48.27044,49.91698 42.87705,45.51184 36.42392,45.51184 c -6.45291,0 -11.8463,4.40514 -13.47245,10.34947 l -15.55655,0 c -2.02889,0 -3.67392,1.64323 -3.67392,3.67392 0,2.03072 1.64503,3.67392 3.67392,3.67392 l 15.55699,0 c 1.62663,5.94367 7.01954,10.34793 13.47201,10.34793 6.45269,0 11.8456,-4.40426 13.47223,-10.34793 l 42.70976,0 c 2.02892,0 3.67392,-1.6432 3.67392,-3.67392 0,-2.03069 -1.645,-3.67392 -3.67392,-3.67392 z M 36.42392,66.20924 c -3.68627,0 -6.67467,-2.98841 -6.67467,-6.67467 0,-3.68649 2.9884,-6.67489 6.67467,-6.67489 3.68648,0 6.67489,2.9884 6.67489,6.67489 0,3.68626 -2.98841,6.67467 -6.67489,6.67467 z"/>
  </symbol>
  <symbol id="slash">
    <path d="M 99.999999,92.6489 92.75981,100   2.121e-5,7.351055 7.2402193,0  57.359906,49.999991 Z"/>
  </symbol>
</defs>

<g id="grid" style="display:none">
  <use xlink:href="#grid-column" opacity=".50" x="0" y="0"/>
  <use xlink:href="#grid-column" opacity="" x="100" y="0"/>
  <use xlink:href="#grid-column" opacity=".50" x="200" y="0"/>
</g>

<use xlink:href="#checkmark" fill="black" x="0" y="0"/>
<use xlink:href="#checkmark" fill="white" x="100" y="0"/>
<use xlink:href="#checkmark" fill="#019CE3" x="200" y="0"/>

<use xlink:href="#caron" fill="black" x="0" y="100"/>
<use xlink:href="#caron" fill="white" x="100" y="100"/>
<use xlink:href="#caron" fill="#019CE3" x="200" y="100"/>

<use xlink:href="#checkbox" fill="white" x="0" y="200"/>
<use xlink:href="#checkbox-checked" fill="white" x="100" y="200"/>
<use xlink:href="#checkbox-checked" fill="#019CE3" x="200" y="200"/>

<use xlink:href="#radio" fill="white" x="0" y="300"/>
<use xlink:href="#radio-checked" fill="white" x="100" y="300"/>
<use xlink:href="#radio-checked" fill="#019CE3" x="200" y="300"/>

<use xlink:href="#editorial-refine" fill="white" x="0" y="400"/>
<use xlink:href="#editorial" fill="white" x="100" y="400"/>
<use xlink:href="#no-people" fill="white" x="200" y="400"/>

<use xlink:href="#composition-horizontal" fill="white" x="0" y="500"/>
<use xlink:href="#composition-vertical" fill="white" x="100" y="500"/>
<use xlink:href="#composition-square" fill="white" x="200" y="500"/>

<use xlink:href="#x" fill="black" x="0" y="600"/>
<use xlink:href="#x" fill="white" x="100" y="600"/>
<use xlink:href="#slash" fill="red" x="200" y="600"/>

<use xlink:href="#mosaic-icon" fill="black" x="0" y="700"/>
<use xlink:href="#grid-icon" fill="black" x="100" y="700"/>

<use xlink:href="#refine-toggle" fill="#666e6e" x="0" y="800"/>
<use xlink:href="#refine-toggle" fill="#019CE3" x="100" y="800"/>
<use xlink:href="#refine-toggle-alt" fill="#019CE3" x="200" y="800"/>

</svg>
